<svg width="25" height="24" viewBox="0 0 25 24" fill="none" xmlns="http://www.w3.org/2000/svg">
<rect x="0.5" width="24" height="24" rx="12" fill="#C2C2C2"/>
<path fill-rule="evenodd" clip-rule="evenodd" d="M8.95817 8.46696C8.95817 8.00186 9.04978 7.54132 9.22776 7.11162C9.40575 6.68193 9.66663 6.2915 9.9955 5.96262C10.3244 5.63375 10.7148 5.37287 11.1445 5.19489C11.5742 5.0169 12.0347 4.92529 12.4998 4.92529C12.9649 4.92529 13.4255 5.0169 13.8552 5.19489C14.2849 5.37287 14.6753 5.63375 15.0042 5.96262C15.333 6.2915 15.5939 6.68193 15.7719 7.11162C15.9499 7.54132 16.0415 8.00186 16.0415 8.46696C16.0415 9.40627 15.6684 10.3071 15.0042 10.9713C14.34 11.6355 13.4391 12.0086 12.4998 12.0086C11.5605 12.0086 10.6597 11.6355 9.9955 10.9713C9.33131 10.3071 8.95817 9.40627 8.95817 8.46696ZM12.4998 6.17529C11.892 6.17529 11.3092 6.41674 10.8794 6.84651C10.4496 7.27628 10.2082 7.85917 10.2082 8.46696C10.2082 9.07475 10.4496 9.65764 10.8794 10.0874C11.3092 10.5172 11.892 10.7586 12.4998 10.7586C13.1076 10.7586 13.6905 10.5172 14.1203 10.0874C14.5501 9.65764 14.7915 9.07475 14.7915 8.46696C14.7915 7.85917 14.5501 7.27628 14.1203 6.84651C13.6905 6.41674 13.1076 6.17529 12.4998 6.17529ZM9.1665 14.5086C8.66922 14.5086 8.19231 14.7062 7.84068 15.0578C7.48905 15.4094 7.2915 15.8863 7.2915 16.3836V17.3736C7.2915 17.3886 7.30234 17.402 7.31734 17.4045C10.7498 17.9645 14.2507 17.9645 17.6823 17.4045C17.6894 17.4028 17.6958 17.3989 17.7004 17.3934C17.7051 17.3878 17.7078 17.3809 17.7082 17.3736V16.3836C17.7082 15.8863 17.5106 15.4094 17.159 15.0578C16.8074 14.7062 16.3305 14.5086 15.8332 14.5086H15.5498C15.5275 14.509 15.5054 14.5124 15.484 14.5186L14.7632 14.7545C13.2925 15.2347 11.7072 15.2347 10.2365 14.7545L9.51484 14.5186C9.49397 14.5125 9.4724 14.5092 9.45067 14.5086H9.1665ZM6.0415 16.3836C6.0415 15.5548 6.37074 14.76 6.9568 14.1739C7.54285 13.5879 8.3377 13.2586 9.1665 13.2586H9.44984C9.60539 13.2592 9.7565 13.2831 9.90317 13.3303L10.6248 13.5661C11.8432 13.9639 13.1565 13.9639 14.3748 13.5661L15.0965 13.3303C15.2423 13.2828 15.3957 13.2586 15.549 13.2586H15.8332C16.662 13.2586 17.4568 13.5879 18.0429 14.1739C18.6289 14.76 18.9582 15.5548 18.9582 16.3836V17.3736C18.9582 18.002 18.5032 18.537 17.8832 18.6378C14.3179 19.2198 10.6818 19.2198 7.1165 18.6378C6.81666 18.5885 6.54404 18.4343 6.34719 18.2028C6.15033 17.9713 6.04201 17.6775 6.0415 17.3736V16.3836Z" fill="white"/>
</svg>
