<svg width="21" height="20" viewBox="0 0 21 20" fill="none" xmlns="http://www.w3.org/2000/svg">
<path d="M18.3412 6.2936L12.3416 1.63141C11.8151 1.22218 11.1671 1 10.5 1C9.83292 1 9.18489 1.22218 8.65837 1.63141L2.65763 6.2936C2.297 6.57379 2.00523 6.93261 1.8046 7.34265C1.60397 7.7527 1.49978 8.20313 1.5 8.65954V16.7521C1.5 17.3483 1.73705 17.92 2.15901 18.3416C2.58097 18.7632 3.15326 19 3.75 19H17.25C17.8467 19 18.419 18.7632 18.841 18.3416C19.2629 17.92 19.5 17.3483 19.5 16.7521V8.65954C19.5 7.73452 19.0725 6.86121 18.3412 6.2936Z" fill="#0056D2" stroke="#0056D2" stroke-width="1.5" stroke-linecap="round" stroke-linejoin="round"/>
<path d="M14.9663 13.3633C12.4801 14.863 8.45031 14.863 5.96631 13.3633" stroke="white" stroke-width="1.5" stroke-linecap="round" stroke-linejoin="round"/>
</svg>
