<svg width="25" height="24" viewBox="0 0 25 24" fill="none" xmlns="http://www.w3.org/2000/svg">
<rect x="0.5" width="24" height="24" rx="12" fill="#0056D2"/>
<path fill-rule="evenodd" clip-rule="evenodd" d="M8.95817 8.4672C8.95817 8.00211 9.04978 7.54156 9.22776 7.11187C9.40575 6.68217 9.66663 6.29174 9.9955 5.96287C10.3244 5.63399 10.7148 5.37312 11.1445 5.19513C11.5742 5.01714 12.0347 4.92554 12.4998 4.92554C12.9649 4.92554 13.4255 5.01714 13.8552 5.19513C14.2849 5.37312 14.6753 5.63399 15.0042 5.96287C15.333 6.29174 15.5939 6.68217 15.7719 7.11187C15.9499 7.54156 16.0415 8.00211 16.0415 8.4672C16.0415 9.40651 15.6684 10.3073 15.0042 10.9715C14.34 11.6357 13.4391 12.0089 12.4998 12.0089C11.5605 12.0089 10.6597 11.6357 9.9955 10.9715C9.33131 10.3073 8.95817 9.40651 8.95817 8.4672ZM12.4998 6.17554C11.892 6.17554 11.3092 6.41698 10.8794 6.84675C10.4496 7.27652 10.2082 7.85942 10.2082 8.4672C10.2082 9.07499 10.4496 9.65789 10.8794 10.0877C11.3092 10.5174 11.892 10.7589 12.4998 10.7589C13.1076 10.7589 13.6905 10.5174 14.1203 10.0877C14.5501 9.65789 14.7915 9.07499 14.7915 8.4672C14.7915 7.85942 14.5501 7.27652 14.1203 6.84675C13.6905 6.41698 13.1076 6.17554 12.4998 6.17554ZM9.1665 14.5089C8.66922 14.5089 8.19231 14.7064 7.84068 15.058C7.48905 15.4097 7.2915 15.8866 7.2915 16.3839V17.3739C7.2915 17.3889 7.30234 17.4022 7.31734 17.4047C10.7498 17.9647 14.2507 17.9647 17.6823 17.4047C17.6894 17.4031 17.6958 17.3992 17.7004 17.3936C17.7051 17.3881 17.7078 17.3811 17.7082 17.3739V16.3839C17.7082 15.8866 17.5106 15.4097 17.159 15.058C16.8074 14.7064 16.3305 14.5089 15.8332 14.5089H15.5498C15.5275 14.5093 15.5054 14.5126 15.484 14.5189L14.7632 14.7547C13.2925 15.2349 11.7072 15.2349 10.2365 14.7547L9.51484 14.5189C9.49397 14.5128 9.4724 14.5094 9.45067 14.5089H9.1665ZM6.0415 16.3839C6.0415 15.5551 6.37074 14.7602 6.9568 14.1742C7.54285 13.5881 8.3377 13.2589 9.1665 13.2589H9.44984C9.60539 13.2594 9.7565 13.2833 9.90317 13.3305L10.6248 13.5664C11.8432 13.9641 13.1565 13.9641 14.3748 13.5664L15.0965 13.3305C15.2423 13.283 15.3957 13.2589 15.549 13.2589H15.8332C16.662 13.2589 17.4568 13.5881 18.0429 14.1742C18.6289 14.7602 18.9582 15.5551 18.9582 16.3839V17.3739C18.9582 18.0022 18.5032 18.5372 17.8832 18.638C14.3179 19.22 10.6818 19.22 7.1165 18.638C6.81666 18.5887 6.54404 18.4346 6.34719 18.2031C6.15033 17.9716 6.04201 17.6777 6.0415 17.3739V16.3839Z" fill="white"/>
</svg>
