<svg width="35" height="35" viewBox="0 0 35 35" fill="none" xmlns="http://www.w3.org/2000/svg">
<path d="M25.625 12.6279C29.1594 12.6474 31.0736 12.8051 32.3216 14.0531C33.75 15.4814 33.75 17.7792 33.75 22.3747V23.9997C33.75 28.5968 33.75 30.8946 32.3216 32.3229C30.8949 33.7497 28.5955 33.7497 24 33.7497H11C6.4045 33.7497 4.10512 33.7497 2.67837 32.3229C1.25 30.8929 1.25 28.5968 1.25 23.9997V22.3747C1.25 17.7792 1.25 15.4814 2.67837 14.0531C3.92637 12.8051 5.84063 12.6474 9.375 12.6279" stroke="#D2D2D2" stroke-width="2.4375" stroke-linecap="round"/>
<path d="M17.5 22.375V1.25M17.5 1.25L22.375 6.9375M17.5 1.25L12.625 6.9375" stroke="#D2D2D2" stroke-width="2.4375" stroke-linecap="round" stroke-linejoin="round"/>
</svg>
