<svg width="16" height="16" viewBox="0 0 16 16" fill="none" xmlns="http://www.w3.org/2000/svg">
<path d="M10 3.3335C10 2.22893 9.10457 1.3335 8 1.3335C6.89543 1.3335 6 2.22893 6 3.3335V6.66683C6 7.7714 6.89543 8.66683 8 8.66683C9.10457 8.66683 10 7.7714 10 6.66683V3.3335Z" stroke="white" stroke-linecap="round" stroke-linejoin="round"/>
<path d="M3.33325 6.66699C3.33325 7.90467 3.82492 9.09165 4.70009 9.96682C5.57526 10.842 6.76224 11.3337 7.99992 11.3337C9.2376 11.3337 10.4246 10.842 11.2998 9.96682C12.1749 9.09165 12.6666 7.90467 12.6666 6.66699M5.33325 14.0003H10.6666M7.99992 11.3337V14.0003" stroke="white" stroke-linecap="round" stroke-linejoin="round"/>
</svg>
