<svg width="27" height="26" viewBox="0 0 27 26" fill="none" xmlns="http://www.w3.org/2000/svg">
<rect x="1.25" y="0.75" width="24.5" height="24.5" rx="12.25" stroke="#0056D2" stroke-width="1.5"/>
<rect x="3.5" y="3" width="20" height="20" rx="10" fill="#C2C2C2"/>
<path fill-rule="evenodd" clip-rule="evenodd" d="M10.5066 10.0142C10.5066 9.6211 10.584 9.23187 10.7344 8.86871C10.8848 8.50554 11.1053 8.17557 11.3833 7.89762C11.6612 7.61966 11.9912 7.39918 12.3544 7.24875C12.7175 7.09833 13.1068 7.0209 13.4998 7.0209C13.8929 7.0209 14.2822 7.09833 14.6453 7.24875C15.0085 7.39918 15.3385 7.61966 15.6164 7.89762C15.8944 8.17557 16.1148 8.50554 16.2653 8.86871C16.4157 9.23187 16.4931 9.6211 16.4931 10.0142C16.4931 10.8081 16.1778 11.5694 15.6164 12.1308C15.0551 12.6921 14.2937 13.0075 13.4998 13.0075C12.706 13.0075 11.9446 12.6921 11.3833 12.1308C10.8219 11.5694 10.5066 10.8081 10.5066 10.0142ZM13.4998 8.07736C12.9862 8.07736 12.4935 8.28141 12.1303 8.64464C11.7671 9.00787 11.563 9.50051 11.563 10.0142C11.563 10.5279 11.7671 11.0205 12.1303 11.3837C12.4935 11.747 12.9862 11.951 13.4998 11.951C14.0135 11.951 14.5062 11.747 14.8694 11.3837C15.2326 11.0205 15.4367 10.5279 15.4367 10.0142C15.4367 9.50051 15.2326 9.00787 14.8694 8.64464C14.5062 8.28141 14.0135 8.07736 13.4998 8.07736ZM10.6826 15.1204C10.2624 15.1204 9.85928 15.2873 9.5621 15.5845C9.26491 15.8817 9.09796 16.2848 9.09796 16.705V17.5418C9.09796 17.5544 9.10711 17.5657 9.11979 17.5678C12.0208 18.0411 14.9796 18.0411 17.8799 17.5678C17.8859 17.5664 17.8912 17.5632 17.8952 17.5584C17.8991 17.5537 17.9014 17.5479 17.9017 17.5418V16.705C17.9017 16.2848 17.7348 15.8817 17.4376 15.5845C17.1404 15.2873 16.7373 15.1204 16.317 15.1204H16.0776C16.0587 15.1207 16.04 15.1235 16.0219 15.1288L15.4127 15.3281C14.1698 15.734 12.8299 15.734 11.587 15.3281L10.977 15.1288C10.9594 15.1237 10.9412 15.1208 10.9228 15.1204H10.6826ZM8.0415 16.705C8.0415 16.0046 8.31976 15.3328 8.81507 14.8375C9.31038 14.3422 9.98216 14.0639 10.6826 14.0639H10.9221C11.0536 14.0644 11.1813 14.0846 11.3052 14.1245L11.9152 14.3238C12.9449 14.66 14.0548 14.66 15.0845 14.3238L15.6944 14.1245C15.8177 14.0843 15.9473 14.0639 16.0769 14.0639H16.317C17.0175 14.0639 17.6893 14.3422 18.1846 14.8375C18.6799 15.3328 18.9582 16.0046 18.9582 16.705V17.5418C18.9582 18.0728 18.5736 18.525 18.0496 18.6102C15.0364 19.102 11.9633 19.102 8.95005 18.6102C8.69663 18.5685 8.46623 18.4382 8.29986 18.2426C8.13348 18.0469 8.04193 17.7986 8.0415 17.5418V16.705Z" fill="white"/>
</svg>
