<svg width="19" height="18" viewBox="0 0 19 18" fill="none" xmlns="http://www.w3.org/2000/svg">
<path d="M16.4998 5.70977L11.1668 1.56177C10.6988 1.19768 10.1227 1 9.52979 1C8.93683 1 8.3608 1.19768 7.89279 1.56177L2.55879 5.70977C2.23823 5.95905 1.97888 6.2783 1.80054 6.64312C1.6222 7.00794 1.52959 7.40869 1.52979 7.81477V15.0148C1.52979 15.5452 1.7405 16.0539 2.11557 16.429C2.49064 16.8041 2.99935 17.0148 3.52979 17.0148H15.5298C16.0602 17.0148 16.5689 16.8041 16.944 16.429C17.3191 16.0539 17.5298 15.5452 17.5298 15.0148V7.81477C17.5298 6.99177 17.1498 6.21477 16.4998 5.70977Z" stroke="#64748B" stroke-width="1.5" stroke-linecap="round" stroke-linejoin="round"/>
<path d="M13.5 12C11.29 13.333 7.708 13.333 5.5 12" stroke="#64748B" stroke-width="1.5" stroke-linecap="round" stroke-linejoin="round"/>
</svg>
