<svg width="25" height="24" viewBox="0 0 25 24" fill="none" xmlns="http://www.w3.org/2000/svg">
<path d="M8.7002 19H8.2002C4.2002 19 2.2002 18 2.2002 13V8C2.2002 4 4.2002 2 8.2002 2H16.2002C20.2002 2 22.2002 4 22.2002 8V13C22.2002 17 20.2002 19 16.2002 19H15.7002C15.3902 19 15.0902 19.15 14.9002 19.4L13.4002 21.4C12.7402 22.28 11.6602 22.28 11.0002 21.4L9.5002 19.4C9.3402 19.18 8.9702 19 8.7002 19Z" stroke="white" stroke-width="1.5" stroke-miterlimit="10" stroke-linecap="round" stroke-linejoin="round"/>
<path d="M7.2002 8H17.2002" stroke="white" stroke-width="1.5" stroke-linecap="round" stroke-linejoin="round"/>
<path d="M7.2002 13H13.2002" stroke="white" stroke-width="1.5" stroke-linecap="round" stroke-linejoin="round"/>
</svg>
